<svg id="svg" xmlns="http://www.w3.org/2000/svg" xmlns:xlink="http://www.w3.org/1999/xlink" width="400" height="398.7012987012987" viewBox="0, 0, 400,398.7012987012987"><g id="svgg"><path id="path0" d="M50.318 24.141 C 48.648 25.811,49.204 37.703,50.974 38.197 C 51.867 38.446,57.857 39.342,64.286 40.188 C 84.164 42.803,92.019 48.269,94.741 61.380 C 95.733 66.158,96.058 107.262,95.810 196.783 L 95.455 325.325 92.607 330.646 C 88.166 338.945,79.418 342.962,61.688 344.841 C 48.973 346.189,49.169 346.046,49.611 353.679 L 50.000 360.390 119.221 360.726 L 188.442 361.062 188.052 353.583 L 187.662 346.104 179.409 345.194 C 157.576 342.786,150.598 339.503,145.455 329.219 L 142.208 322.727 141.805 268.366 L 141.402 214.005 161.285 214.521 C 191.769 215.312,192.609 215.908,214.973 252.597 C 274.632 350.468,286.007 360.239,345.010 364.292 L 358.202 365.198 359.358 358.248 C 360.414 351.896,360.285 351.202,357.854 350.168 C 325.979 336.616,306.892 314.449,251.010 226.085 C 232.424 196.695,233.297 199.636,241.883 195.308 C 281.311 175.435,300.348 147.843,300.469 110.390 C 300.620 63.726,275.041 35.613,224.026 26.370 C 211.492 24.099,52.401 22.058,50.318 24.141 M200.605 44.792 C 240.469 55.465,261.040 96.504,249.379 142.097 C 239.714 179.887,212.965 196.104,160.296 196.104 L 141.558 196.104 141.560 126.299 C 141.563 49.339,141.539 49.573,149.665 45.715 C 159.138 41.217,185.471 40.740,200.605 44.792 " stroke="none" fill="#000000" fill-rule="evenodd"></path></g></svg>