<?xml version="1.0" standalone="no"?>
<!DOCTYPE svg PUBLIC "-//W3C//DTD SVG 20010904//EN"
 "http://www.w3.org/TR/2001/REC-SVG-20010904/DTD/svg10.dtd">
<svg version="1.0" xmlns="http://www.w3.org/2000/svg"
 width="301.000000pt" height="302.000000pt" viewBox="0 0 301.000000 302.000000"
 preserveAspectRatio="xMidYMid meet">
<metadata>
Created by potrace 1.16, written by Peter Selinger 2001-2019
</metadata>
<g transform="translate(0.000000,302.000000) scale(0.100000,-0.100000)"
fill="#000000" stroke="none">
<path d="M1251 2745 c-213 -52 -410 -186 -551 -374 -288 -385 -347 -988 -144
-1464 19 -43 34 -87 34 -97 0 -9 -15 -69 -34 -131 -81 -268 -126 -430 -126
-452 0 -23 27 -57 45 -57 4 0 106 52 226 115 120 63 223 115 229 115 5 0 31
-15 57 -34 226 -161 541 -199 793 -97 226 92 428 291 547 540 149 313 181 697
88 1054 -74 282 -228 532 -428 692 -122 97 -238 154 -387 189 -80 19 -273 19
-349 1z m359 -132 c333 -81 622 -414 718 -828 86 -370 26 -754 -166 -1044
-172 -261 -411 -401 -687 -401 -165 0 -297 43 -450 145 -45 30 -86 55 -92 55
-6 0 -88 -41 -182 -91 -95 -50 -174 -89 -176 -87 -2 2 9 46 24 98 113 373 112
369 82 428 -56 111 -107 272 -126 402 -19 124 -19 341 0 460 49 300 206 575
414 729 195 144 413 189 641 134z"/>
<path d="M1101 2248 c-52 -14 -152 -121 -192 -205 -54 -112 -52 -248 6 -449
65 -224 204 -446 383 -615 192 -180 412 -266 548 -214 99 37 224 212 224 312
0 75 -20 104 -124 184 -127 96 -164 119 -202 119 -34 0 -69 -33 -132 -123 -29
-44 -34 -47 -55 -36 -82 44 -261 264 -302 374 l-18 45 52 55 c71 75 95 130 81
188 -10 47 -141 322 -163 344 -21 21 -69 30 -106 21z m108 -254 c34 -70 61
-131 61 -136 0 -5 -23 -35 -51 -66 -70 -78 -82 -105 -77 -167 12 -147 232
-447 381 -520 56 -27 60 -27 91 -12 21 10 50 41 80 86 25 39 52 71 58 71 12 0
189 -132 209 -157 28 -33 -72 -171 -146 -204 -54 -23 -134 -11 -235 37 -294
138 -558 518 -602 867 -11 85 -10 102 5 150 26 82 129 199 158 181 4 -2 34
-61 68 -130z"/>
</g>
</svg>
